<svg xmlns="http://www.w3.org/2000/svg" xmlns:xlink="http://www.w3.org/1999/xlink" width="840" height="61.709999999999994"><rect width="840" height="61.709999999999994" rx="0" ry="0" class="a"></rect><svg height="21.709999999999997" viewBox="0 0 80 2.171" width="800" x="20" xmlns="http://www.w3.org/2000/svg" xmlns:xlink="http://www.w3.org/1999/xlink" y="20"><style>.a{fill:rgb(241,243,245)}.b{font-family:'Fira Code',Monaco,Consolas,Menlo,'Bitstream Vera Sans Mono','Powerline Symbols',monospace}.c{fill:rgb(181,137,0);white-space:pre}.d{fill:rgb(23,36,49);white-space:pre}.e{fill:transparent}.g{animation-duration:17.1052270000218s;animation-iteration-count:infinite;animation-name:f;animation-timing-function:steps(1,end)}.h{fill:rgb(82,82,82);white-space:pre}@keyframes f{0%{transform:translateX(-0px)}6.69%{transform:translateX(-80px)}6.87%{transform:translateX(-160px)}13.2%{transform:translateX(-240px)}19.3%{transform:translateX(-320px)}25.44%{transform:translateX(-400px)}31.54%{transform:translateX(-480px)}37.62%{transform:translateX(-560px)}43.74%{transform:translateX(-640px)}49.82%{transform:translateX(-720px)}55.92%{transform:translateX(-800px)}62.09%{transform:translateX(-880px)}62.32%{transform:translateX(-960px)}62.32%{transform:translateX(-1040px)}62.33%{transform:translateX(-1120px)}100%{transform:translateX(-1200px)}}</style><g font-family="&#x27;Fira Code&#x27;,Monaco,Consolas,Menlo,&#x27;Bitstream Vera Sans Mono&#x27;,&#x27;Powerline Symbols&#x27;,monospace" font-size="1.67" class="b"><defs><symbol id="1"><text font-size="1.67" x="0" y="1.67" class="c">★★★★★★★★★★★★★★★★★★★★★★★★★★★★★★★</text><text font-size="1.67" x="33.065999999999995" y="1.67" class="d">100%</text><text font-size="1.67" x="38.07599999999999" y="1.67" class="d">|</text><text font-size="1.67" x="40.08" y="1.67" class="d">P:</text><text font-size="1.67" x="43.086" y="1.67" class="d">Adding</text><text font-size="1.67" x="50.1" y="1.67" class="d">10</text><text font-size="1.67" x="53.105999999999995" y="1.67" class="d">ETA:</text><text font-size="1.67" x="59.117999999999995" y="1.67" class="d">…</text></symbol><symbol id="a"><rect height="1" width="80" x="0" y="0" class="e"></rect></symbol></defs><rect height="2.171" width="80" class="a"></rect><g class="g"><svg x="0" y="0" width="1280"><svg x="0"><use xlink:href="#a"></use></svg><svg x="80"><use xlink:href="#a"></use></svg><svg x="160"><use xlink:href="#a"></use><text font-size="1.67" x="0" y="1.67" class="c">★★★★</text><text font-size="1.67" x="4.008" y="1.67" class="h">···························</text><text font-size="1.67" x="34.068" y="1.67" class="d">10%</text><text font-size="1.67" x="38.07599999999999" y="1.67" class="d">|</text><text font-size="1.67" x="40.08" y="1.67" class="d">P:</text><text font-size="1.67" x="43.086" y="1.67" class="d">Adding</text><text font-size="1.67" x="50.1" y="1.67" class="d">1</text><text font-size="1.67" x="52.104" y="1.67" class="d">ETA:</text><text font-size="1.67" x="58.116" y="1.67" class="d">7s</text></svg><svg x="240"><use xlink:href="#a"></use><text font-size="1.67" x="0" y="1.67" class="c">★★★★★★★</text><text font-size="1.67" x="7.013999999999999" y="1.67" class="h">························</text><text font-size="1.67" x="34.068" y="1.67" class="d">20%</text><text font-size="1.67" x="38.07599999999999" y="1.67" class="d">|</text><text font-size="1.67" x="40.08" y="1.67" class="d">P:</text><text font-size="1.67" x="43.086" y="1.67" class="d">Adding</text><text font-size="1.67" x="50.1" y="1.67" class="d">2</text><text font-size="1.67" x="52.104" y="1.67" class="d">ETA:</text><text font-size="1.67" x="58.116" y="1.67" class="d">7s</text></svg><svg x="320"><use xlink:href="#a"></use><text font-size="1.67" x="0" y="1.67" class="c">★★★★★★★★★★</text><text font-size="1.67" x="10.02" y="1.67" class="h">·····················</text><text font-size="1.67" x="34.068" y="1.67" class="d">30%</text><text font-size="1.67" x="38.07599999999999" y="1.67" class="d">|</text><text font-size="1.67" x="40.08" y="1.67" class="d">P:</text><text font-size="1.67" x="43.086" y="1.67" class="d">Adding</text><text font-size="1.67" x="50.1" y="1.67" class="d">3</text><text font-size="1.67" x="52.104" y="1.67" class="d">ETA:</text><text font-size="1.67" x="58.116" y="1.67" class="d">7s</text></svg><svg x="400"><use xlink:href="#a"></use><text font-size="1.67" x="0" y="1.67" class="c">★★★★★★★★★★★★★</text><text font-size="1.67" x="13.026" y="1.67" class="h">··················</text><text font-size="1.67" x="34.068" y="1.67" class="d">40%</text><text font-size="1.67" x="38.07599999999999" y="1.67" class="d">|</text><text font-size="1.67" x="40.08" y="1.67" class="d">P:</text><text font-size="1.67" x="43.086" y="1.67" class="d">Adding</text><text font-size="1.67" x="50.1" y="1.67" class="d">4</text><text font-size="1.67" x="52.104" y="1.67" class="d">ETA:</text><text font-size="1.67" x="58.116" y="1.67" class="d">6s</text></svg><svg x="480"><use xlink:href="#a"></use><text font-size="1.67" x="0" y="1.67" class="c">★★★★★★★★★★★★★★★★</text><text font-size="1.67" x="16.032" y="1.67" class="h">···············</text><text font-size="1.67" x="34.068" y="1.67" class="d">50%</text><text font-size="1.67" x="38.07599999999999" y="1.67" class="d">|</text><text font-size="1.67" x="40.08" y="1.67" class="d">P:</text><text font-size="1.67" x="43.086" y="1.67" class="d">Adding</text><text font-size="1.67" x="50.1" y="1.67" class="d">5</text><text font-size="1.67" x="52.104" y="1.67" class="d">ETA:</text><text font-size="1.67" x="58.116" y="1.67" class="d">5s</text></svg><svg x="560"><use xlink:href="#a"></use><text font-size="1.67" x="0" y="1.67" class="c">★★★★★★★★★★★★★★★★★★★</text><text font-size="1.67" x="19.037999999999997" y="1.67" class="h">············</text><text font-size="1.67" x="34.068" y="1.67" class="d">60%</text><text font-size="1.67" x="38.07599999999999" y="1.67" class="d">|</text><text font-size="1.67" x="40.08" y="1.67" class="d">P:</text><text font-size="1.67" x="43.086" y="1.67" class="d">Adding</text><text font-size="1.67" x="50.1" y="1.67" class="d">6</text><text font-size="1.67" x="52.104" y="1.67" class="d">ETA:</text><text font-size="1.67" x="58.116" y="1.67" class="d">4s</text></svg><svg x="640"><use xlink:href="#a"></use><text font-size="1.67" x="0" y="1.67" class="c">★★★★★★★★★★★★★★★★★★★★★★</text><text font-size="1.67" x="22.043999999999997" y="1.67" class="h">·········</text><text font-size="1.67" x="34.068" y="1.67" class="d">70%</text><text font-size="1.67" x="38.07599999999999" y="1.67" class="d">|</text><text font-size="1.67" x="40.08" y="1.67" class="d">P:</text><text font-size="1.67" x="43.086" y="1.67" class="d">Adding</text><text font-size="1.67" x="50.1" y="1.67" class="d">7</text><text font-size="1.67" x="52.104" y="1.67" class="d">ETA:</text><text font-size="1.67" x="58.116" y="1.67" class="d">3s</text></svg><svg x="720"><use xlink:href="#a"></use><text font-size="1.67" x="0" y="1.67" class="c">★★★★★★★★★★★★★★★★★★★★★★★★★</text><text font-size="1.67" x="25.05" y="1.67" class="h">······</text><text font-size="1.67" x="34.068" y="1.67" class="d">80%</text><text font-size="1.67" x="38.07599999999999" y="1.67" class="d">|</text><text font-size="1.67" x="40.08" y="1.67" class="d">P:</text><text font-size="1.67" x="43.086" y="1.67" class="d">Adding</text><text font-size="1.67" x="50.1" y="1.67" class="d">8</text><text font-size="1.67" x="52.104" y="1.67" class="d">ETA:</text><text font-size="1.67" x="58.116" y="1.67" class="d">2s</text></svg><svg x="800"><use xlink:href="#a"></use><text font-size="1.67" x="0" y="1.67" class="c">★★★★★★★★★★★★★★★★★★★★★★★★★★★★</text><text font-size="1.67" x="28.055999999999997" y="1.67" class="h">···</text><text font-size="1.67" x="34.068" y="1.67" class="d">90%</text><text font-size="1.67" x="38.07599999999999" y="1.67" class="d">|</text><text font-size="1.67" x="40.08" y="1.67" class="d">P:</text><text font-size="1.67" x="43.086" y="1.67" class="d">Adding</text><text font-size="1.67" x="50.1" y="1.67" class="d">9</text><text font-size="1.67" x="52.104" y="1.67" class="d">ETA:</text><text font-size="1.67" x="58.116" y="1.67" class="d">1s</text></svg><svg x="880"><use xlink:href="#a"></use><use xlink:href="#1" y="0"></use></svg><svg x="960"><use xlink:href="#a"></use><use xlink:href="#1" y="0"></use></svg><svg x="1040"><use xlink:href="#a"></use><use xlink:href="#1" y="0"></use></svg><svg x="1120"><use xlink:href="#a"></use><use xlink:href="#1" y="0"></use></svg><svg x="1200"><use xlink:href="#a"></use><use xlink:href="#1" y="0"></use></svg></svg></g></g></svg></svg>